<svg width="45" height="45" viewBox="0 0 45 45" fill="none" xmlns="http://www.w3.org/2000/svg">
<path d="M3.21143 36.3344C3.21143 36.0691 3.21143 35.8795 3.21143 35.69C3.21143 28.9419 3.21143 22.1938 3.21143 15.4457C3.21143 13.8029 4.25801 12.5265 5.89497 12.1853C6.23041 12.1095 6.59269 12.1095 6.94154 12.1095C10.8461 12.1095 14.7372 12.1095 18.6417 12.1095C18.843 12.1095 19.0309 12.1095 19.2724 12.1095C19.2724 11.5788 19.2724 11.1112 19.2724 10.6436C19.2724 9.20303 19.2724 7.77506 19.2724 6.33445C19.2724 3.80708 21.1643 2 23.8478 2C29.3759 2 34.904 2 40.4186 2C43.0753 2 44.9806 3.79444 44.994 6.28391C45.0075 9.53159 44.994 12.7793 44.994 16.027C44.994 18.3521 44.0951 19.6285 41.8006 20.5004C41.8006 25.7321 41.8006 30.989 41.8006 36.3092C42.3776 36.3092 42.9546 36.3344 43.5315 36.3092C44.6854 36.2333 45.1148 36.8399 44.9538 37.8761C44.5378 40.5804 42.3642 42.3622 39.4123 42.3622C34.0586 42.3749 28.6916 42.3622 23.3379 42.3622C17.4342 42.3622 11.517 42.3622 5.6132 42.3622C3.05042 42.3875 1.02436 41.0733 0.272966 38.9124C0.125372 38.4701 0.0314483 37.9899 0.00461294 37.5223C-0.0490577 36.7388 0.36689 36.3471 1.18537 36.3344C1.84283 36.3218 2.5003 36.3344 3.21143 36.3344ZM20.9898 36.2965C27.2425 36.2965 33.428 36.2965 39.6136 36.2965C39.6136 31.0775 39.6136 25.909 39.6136 20.7152C39.5196 20.7026 39.4525 20.6773 39.3855 20.6773C36.93 20.6773 34.4612 20.6647 32.0057 20.6773C31.8313 20.6773 31.63 20.7784 31.4825 20.8922C30.7713 21.4229 30.087 21.9789 29.3893 22.5223C27.9536 23.647 26.5179 24.7843 25.0688 25.909C24.4113 26.4145 23.6063 26.2881 23.3111 25.6184C23.2306 25.4162 23.2038 25.1887 23.2038 24.9739C23.1903 23.5459 23.2038 22.1053 23.2038 20.6773C23.1232 20.6521 23.0696 20.6394 23.0293 20.6268C20.5471 20.0708 19.2858 18.5796 19.2858 16.166C19.2858 15.4962 19.2858 14.8138 19.2858 14.1061C19.0577 14.1061 18.8698 14.1061 18.6954 14.1061C14.7909 14.1061 10.8998 14.1061 6.99522 14.1061C5.80104 14.1061 5.34484 14.5232 5.34484 15.6352C5.34484 22.3454 5.34484 29.0682 5.34484 35.7784C5.34484 35.9427 5.35826 36.107 5.37168 36.2839C6.45851 36.2839 7.49167 36.2839 8.56508 36.2839C8.56508 35.2477 8.55166 34.2367 8.56508 33.2258C8.5785 31.2291 10.0008 29.8643 12.1208 29.8391C13.8919 29.8264 15.663 29.8264 17.4476 29.8391C19.581 29.8517 20.9898 31.2165 21.0033 33.2131C21.0033 34.2493 20.9898 35.2477 20.9898 36.2965ZM25.3506 23.0783C27.1217 21.6883 28.7855 20.3867 30.4359 19.0851C30.7982 18.7944 31.1873 18.6681 31.6703 18.6681C34.5819 18.6807 37.4936 18.6807 40.4052 18.6681C41.908 18.6681 42.8606 17.7835 42.8741 16.3808C42.8875 13.0194 42.8875 9.67059 42.8741 6.30918C42.8741 4.93176 41.908 4.03454 40.4455 4.03454C34.9174 4.0219 29.4027 4.03454 23.8746 4.03454C22.3987 4.03454 21.446 4.93176 21.4326 6.30918C21.4192 9.68323 21.4192 13.0573 21.4326 16.4313C21.4326 17.7835 22.3987 18.6681 23.8344 18.6807C25.0688 18.6933 25.3506 18.9587 25.3506 20.1466C25.3506 21.0691 25.3506 22.0042 25.3506 23.0783ZM42.6191 38.3816C29.188 38.3816 15.7972 38.3816 2.3527 38.3816C2.40637 38.508 2.43321 38.5964 2.47346 38.6849C3.14435 39.8854 4.23118 40.3656 5.64003 40.3656C16.8706 40.353 28.1012 40.3656 39.3452 40.353C39.5733 40.353 39.8148 40.353 40.0429 40.3277C41.2103 40.2266 42.2837 39.4052 42.6191 38.3816ZM18.8698 36.3092C18.8698 35.3235 18.8698 34.3631 18.8698 33.4153C18.8698 33.2384 18.8698 33.0615 18.843 32.8972C18.7223 32.3033 18.2795 31.9115 17.622 31.9115C15.7301 31.8989 13.8382 31.8989 11.9463 31.9115C11.2486 31.9242 10.7656 32.3917 10.7387 33.0615C10.7119 33.5543 10.7253 34.0345 10.7253 34.5274C10.7253 35.1213 10.7253 35.7152 10.7253 36.3218C13.4625 36.3092 16.1326 36.3092 18.8698 36.3092Z" fill="#021B39"/>
<path d="M25.3504 23.0783C25.3504 22.0168 25.3504 21.069 25.3504 20.1339C25.3504 18.9587 25.0686 18.6806 23.8342 18.668C22.3985 18.6554 21.4324 17.7708 21.4324 16.4186C21.419 13.0446 21.419 9.67054 21.4324 6.29649C21.4324 4.91907 22.3985 4.02185 23.8744 4.02185C29.4025 4.02185 34.9172 4.02185 40.4453 4.02185C41.9212 4.02185 42.8738 4.91907 42.8738 6.29649C42.8873 9.6579 42.8873 13.0067 42.8738 16.3681C42.8738 17.7834 41.9078 18.6554 40.405 18.6554C37.4934 18.6554 34.5817 18.668 31.6701 18.6554C31.1871 18.6554 30.798 18.7817 30.4357 19.0724C28.7853 20.3866 27.1215 21.6882 25.3504 23.0783ZM32.1397 9.58208C34.0316 9.58208 35.9235 9.58208 37.8154 9.58208C38.6204 9.58208 39.1035 9.20298 39.0901 8.55849C39.0901 7.93929 38.6339 7.57282 37.8422 7.57282C36.5675 7.57282 35.2929 7.57282 34.0316 7.57282C31.5091 7.57282 28.9732 7.57282 26.4506 7.57282C25.7932 7.57282 25.4041 7.80028 25.243 8.24257C24.9881 8.9376 25.5248 9.58208 26.3701 9.58208C28.3023 9.58208 30.221 9.58208 32.1397 9.58208ZM29.2147 15.1423C30.1137 15.1423 31.0261 15.1423 31.925 15.1423C32.7301 15.1423 33.2266 14.7253 33.2131 14.1187C33.1997 13.5122 32.7167 13.1204 31.9519 13.1204C30.1137 13.1078 28.262 13.1078 26.4238 13.1204C25.6456 13.1204 25.1894 13.5248 25.1894 14.144C25.1894 14.7632 25.659 15.1423 26.4372 15.1423C27.363 15.1423 28.2889 15.1423 29.2147 15.1423Z" fill="white"/>
<path d="M42.6192 38.3816C42.2972 39.4054 41.2103 40.227 40.0564 40.3408C39.8283 40.3661 39.5868 40.3661 39.3587 40.3661C28.1281 40.3661 16.8975 40.3661 5.65354 40.3787C4.23127 40.3787 3.15785 39.8858 2.48697 38.6976C2.44672 38.6218 2.41988 38.5206 2.36621 38.3942C15.7839 38.3816 29.1881 38.3816 42.6192 38.3816Z" fill="white"/>
<path d="M19.286 24.4557C19.2725 26.7556 17.2465 28.6638 14.791 28.6638C12.3088 28.6638 10.2827 26.7556 10.2827 24.4304C10.2827 22.1053 12.3088 20.1844 14.7776 20.1844C17.2867 20.1844 19.286 22.0926 19.286 24.4557ZM14.8045 26.6293C16.0926 26.6293 17.1391 25.6436 17.1526 24.4431C17.1526 23.2173 16.0926 22.2064 14.8045 22.2064C13.503 22.2064 12.443 23.192 12.443 24.4304C12.443 25.6562 13.4761 26.6293 14.8045 26.6293Z" fill="#197E37"/>
<path d="M32.1401 9.58264C30.2214 9.58264 28.2893 9.58264 26.3705 9.58264C25.5118 9.58264 24.9885 8.938 25.2434 8.2428C25.4045 7.8004 25.7936 7.58552 26.451 7.57288C28.9736 7.57288 31.5095 7.57288 34.032 7.57288C35.3067 7.57288 36.5814 7.57288 37.8426 7.57288C38.6477 7.57288 39.0905 7.93944 39.0905 8.5588C39.1039 9.1908 38.6208 9.58264 37.8158 9.58264C35.9239 9.58264 34.032 9.58264 32.1401 9.58264Z" fill="#197E37"/>
<path d="M29.215 15.143C28.2892 15.143 27.3768 15.143 26.451 15.143C25.6727 15.1303 25.2031 14.7511 25.2031 14.1444C25.2031 13.525 25.6593 13.1206 26.4375 13.1206C28.2758 13.1079 30.1274 13.1079 31.9656 13.1206C32.7304 13.1206 33.2269 13.525 33.2269 14.1191C33.2403 14.7385 32.7304 15.143 31.9388 15.143C31.013 15.143 30.114 15.143 29.215 15.143Z" fill="#197E37"/>
</svg>
