<svg width="45" height="45" viewBox="0 0 45 45" fill="none" xmlns="http://www.w3.org/2000/svg">
<g clip-path="url(#clip0_161_613)">
<mask id="mask0_161_613" style="mask-type:luminance" maskUnits="userSpaceOnUse" x="0" y="0" width="45" height="45">
<path d="M45 0H0V45H45V0Z" fill="white"/>
</mask>
<g mask="url(#mask0_161_613)">
<path d="M19.0723 32.1018C20.0244 32.5852 20.8813 33.1786 21.6431 33.8817C22.4049 34.5848 23.0639 35.3759 23.6207 36.2547C24.1772 37.1336 24.5947 38.0711 24.8731 39.0672C25.1513 40.0633 25.2979 41.1034 25.3125 42.1873H22.5C22.5 41.0301 22.2803 39.9389 21.8407 38.9134C21.4014 37.888 20.8008 36.9944 20.0391 36.2328C19.2774 35.471 18.3764 34.863 17.3364 34.409C16.2964 33.9548 15.2051 33.7351 14.0625 33.7498C12.8906 33.7498 11.7993 33.9696 10.7886 34.409C9.77783 34.8484 8.88427 35.449 8.10791 36.2108C7.33154 36.9724 6.72363 37.8734 6.28419 38.9134C5.84473 39.9535 5.625 41.0448 5.625 42.1873H2.8125C2.8125 41.118 2.95899 40.0853 3.25196 39.0892C3.54492 38.0931 3.96239 37.1556 4.50439 36.2767C5.04638 35.3977 5.69824 34.6067 6.45996 33.9036C7.22168 33.2004 8.08594 32.5999 9.05273 32.1018C7.96874 31.2961 7.12646 30.3002 6.52588 29.1136C5.92529 27.9271 5.625 26.66 5.625 25.3123C5.625 24.1551 5.84473 23.0639 6.28419 22.0384C6.72363 21.013 7.32422 20.1194 8.08594 19.3578C8.84766 18.596 9.74121 17.988 10.7666 17.534C11.792 17.0798 12.8906 16.8601 14.0625 16.8748C15.4102 16.8748 16.6773 17.1751 17.8637 17.7757C19.0503 18.3763 20.0464 19.2186 20.852 20.3026C21.4087 19.204 22.1191 18.2225 22.9834 17.3582C23.8476 16.494 24.8291 15.7835 25.9277 15.2269C24.8437 14.4212 24.0014 13.4251 23.4008 12.2386C22.8002 11.0521 22.5 9.78499 22.5 8.43733C22.5 7.28011 22.7197 6.1888 23.1592 5.16341C23.5986 4.13802 24.1992 3.24446 24.9609 2.48274C25.7226 1.72102 26.6162 1.11311 27.6416 0.659012C28.6669 0.20491 29.7656 -0.0148163 30.9375 -0.000167846C32.0948 -0.000167846 33.1861 0.219559 34.2114 0.659012C35.2368 1.09847 36.1303 1.69905 36.8921 2.46077C37.6537 3.22249 38.2617 4.12336 38.7157 5.16341C39.1699 6.20344 39.3896 7.29475 39.375 8.43733C39.375 9.78499 39.0748 11.0521 38.4742 12.2386C37.8736 13.4251 37.0313 14.4212 35.9473 15.2269C36.8994 15.7103 37.7563 16.3036 38.5181 17.0067C39.2799 17.7098 39.9389 18.5009 40.4957 19.3797C41.0522 20.2586 41.4697 21.1961 41.7481 22.1922C42.0263 23.1883 42.1729 24.2284 42.1875 25.3123H39.375C39.375 24.1551 39.1553 23.0639 38.7157 22.0384C38.2764 21.013 37.6758 20.1194 36.9141 19.3578C36.1524 18.596 35.2514 17.988 34.2114 17.534C33.1714 17.0798 32.08 16.8601 30.9375 16.8748C29.7656 16.8748 28.6743 17.0946 27.6636 17.534C26.6529 17.9734 25.7593 18.574 24.9829 19.3358C24.2065 20.0974 23.5986 20.9984 23.1592 22.0384C22.7197 23.0785 22.5 24.1698 22.5 25.3123C22.5 26.66 22.1998 27.9271 21.5992 29.1136C20.9986 30.3002 20.1563 31.2961 19.0723 32.1018ZM25.3125 8.43733C25.3125 9.2137 25.4589 9.93879 25.7519 10.6126C26.0449 11.2865 26.4478 11.887 26.9605 12.4144C27.4731 12.9417 28.0663 13.3446 28.7402 13.6229C29.4141 13.9012 30.1465 14.0477 30.9375 14.0623C31.7139 14.0623 32.4389 13.9158 33.1128 13.6229C33.7866 13.3299 34.3872 12.9271 34.9145 12.4144C35.4418 11.9017 35.8447 11.3084 36.1231 10.6346C36.4013 9.96078 36.5479 9.22835 36.5625 8.43733C36.5625 7.66097 36.4161 6.93586 36.1231 6.26203C35.8301 5.58821 35.4272 4.98762 34.9145 4.46028C34.4019 3.93293 33.8087 3.5301 33.1348 3.25179C32.4609 2.97347 31.7285 2.82698 30.9375 2.81233C30.1611 2.81233 29.4361 2.95881 28.7622 3.25179C28.0884 3.54476 27.4878 3.94759 26.9605 4.46028C26.4332 4.97298 26.0302 5.56624 25.7519 6.24006C25.4737 6.91389 25.3271 7.64631 25.3125 8.43733ZM8.4375 25.3123C8.4375 26.0887 8.58399 26.8138 8.87696 27.4877C9.16992 28.1614 9.57275 28.762 10.0854 29.2893C10.5981 29.8168 11.1914 30.2195 11.8652 30.4979C12.5391 30.7762 13.2715 30.9226 14.0625 30.9373C14.8389 30.9373 15.564 30.7909 16.2378 30.4979C16.9116 30.2049 17.5122 29.8021 18.0395 29.2893C18.5668 28.7766 18.9697 28.1834 19.2481 27.5096C19.5263 26.8358 19.6729 26.1033 19.6875 25.3123C19.6875 24.536 19.5411 23.8109 19.2481 23.137C18.9551 22.4633 18.5522 21.8627 18.0395 21.3352C17.5269 20.8079 16.9337 20.4052 16.2598 20.1268C15.5859 19.8485 14.8535 19.7021 14.0625 19.6873C13.2861 19.6873 12.561 19.8338 11.8872 20.1268C11.2134 20.4198 10.6128 20.8226 10.0854 21.3352C9.55811 21.8479 9.15527 22.4413 8.87696 23.1151C8.59863 23.7889 8.45214 24.5214 8.4375 25.3123Z" fill="#021B39"/>
<path d="M36.1606 25.7142L38.9764 31.589L44.9999 32.5137L40.5802 36.8204L42.4744 43.3928L36.1606 39.5959L29.8468 43.3928L31.7409 36.8204L27.3213 32.5137L33.5088 31.589L36.1606 25.7142Z" fill="#197E37"/>
</g>
</g>
<defs>
<clipPath id="clip0_161_613">
<rect width="45" height="45" fill="white"/>
</clipPath>
</defs>
</svg>
